# xmcd
#
# Track frame offsets:
# 150
# 15949
# 28270
# 46600
# 57282
# 71306
# 80917
# 96369
# 105419
# 120576
# 134546
# 148614
#
# Disc length: 2164 seconds
#
#
# Revision: 0
# Processed by: cddbd v1.5.2PL0 Copyright (c) Steve Scherf et al.
# Submitted via: FreeRIP 2.91 
#
DISCID=9c08720c
DTITLE=Fistful of Dollars - Fistful of Dollars
DYEAR=2013
DGENRE=Country
TTITLE0=3 Chords, 6 strings and a hundre beers
TTITLE1=Hot damn mighty fine day
TTITLE2=Dead flowers
TTITLE3=Who do you think you are (feat. Lea Thorlann)
TTITLE4=Walking backwards
TTITLE5=Svend Diesel
TTITLE6=South of the border
TTITLE7=Deep south bop
TTITLE8=Funny familiar forgotten feelings
TTITLE9=A fistful of dollars
TTITLE10=Love the one you're with (Feat. Frank Lauridsen and Peter Busborg)
TTITLE11=The bottle let me down
EXTD=
EXTT0=
EXTT1=
EXTT2=
EXTT3=
EXTT4=
EXTT5=
EXTT6=
EXTT7=
EXTT8=
EXTT9=
EXTT10=
EXTT11=
PLAYORDER=
